<svg id="visual" viewBox="0 0 900 600" width="900" height="600" xmlns="http://www.w3.org/2000/svg" xmlns:xlink="http://www.w3.org/1999/xlink" version="1.1"><g stroke-width="1" stroke-linejoin="bevel"><path d="M426 297L470 362L502 309Z" fill="#19435d" stroke="#19435d"></path><path d="M502 309L483 231L426 297Z" fill="#0c2435" stroke="#0c2435"></path><path d="M470 362L568 402L502 309Z" fill="#1d4e6b" stroke="#1d4e6b"></path><path d="M502 309L598 269L483 231Z" fill="#19435d" stroke="#19435d"></path><path d="M426 297L380 435L470 362Z" fill="#0c2435" stroke="#0c2435"></path><path d="M470 362L490 472L568 402Z" fill="#0c2435" stroke="#0c2435"></path><path d="M568 402L598 269L502 309Z" fill="#1d4e6b" stroke="#1d4e6b"></path><path d="M522 97L435 175L483 231Z" fill="#00101c" stroke="#00101c"></path><path d="M483 231L435 175L426 297Z" fill="#205a7a" stroke="#205a7a"></path><path d="M426 297L311 382L380 435Z" fill="#246688" stroke="#246688"></path><path d="M380 435L490 472L470 362Z" fill="#0c2435" stroke="#0c2435"></path><path d="M274 317L311 382L426 297Z" fill="#0c2435" stroke="#0c2435"></path><path d="M435 175L309 225L426 297Z" fill="#0c2435" stroke="#0c2435"></path><path d="M309 225L274 317L426 297Z" fill="#00101c" stroke="#00101c"></path><path d="M311 382L328 469L380 435Z" fill="#00101c" stroke="#00101c"></path><path d="M380 435L397 518L490 472Z" fill="#112e42" stroke="#112e42"></path><path d="M203 401L328 469L311 382Z" fill="#0c2435" stroke="#0c2435"></path><path d="M490 472L573 487L568 402Z" fill="#00101c" stroke="#00101c"></path><path d="M568 402L689 327L598 269Z" fill="#00101c" stroke="#00101c"></path><path d="M476 600L573 487L490 472Z" fill="#277297" stroke="#277297"></path><path d="M328 469L397 518L380 435Z" fill="#246688" stroke="#246688"></path><path d="M689 327L639 194L598 269Z" fill="#246688" stroke="#246688"></path><path d="M598 269L639 194L483 231Z" fill="#112e42" stroke="#112e42"></path><path d="M717 400L689 327L568 402Z" fill="#00101c" stroke="#00101c"></path><path d="M639 194L522 97L483 231Z" fill="#297ea6" stroke="#297ea6"></path><path d="M435 175L277 131L309 225Z" fill="#205a7a" stroke="#205a7a"></path><path d="M522 97L411 87L435 175Z" fill="#19435d" stroke="#19435d"></path><path d="M411 87L277 131L435 175Z" fill="#246688" stroke="#246688"></path><path d="M309 225L197 267L274 317Z" fill="#112e42" stroke="#112e42"></path><path d="M698 461L717 400L568 402Z" fill="#00101c" stroke="#00101c"></path><path d="M689 327L710 177L639 194Z" fill="#112e42" stroke="#112e42"></path><path d="M162 176L197 267L309 225Z" fill="#112e42" stroke="#112e42"></path><path d="M274 317L203 401L311 382Z" fill="#297ea6" stroke="#297ea6"></path><path d="M197 267L203 401L274 317Z" fill="#246688" stroke="#246688"></path><path d="M362 600L476 600L397 518Z" fill="#0c2435" stroke="#0c2435"></path><path d="M573 487L698 461L568 402Z" fill="#15384f" stroke="#15384f"></path><path d="M362 600L397 518L328 469Z" fill="#246688" stroke="#246688"></path><path d="M397 518L476 600L490 472Z" fill="#00101c" stroke="#00101c"></path><path d="M573 487L613 600L698 461Z" fill="#112e42" stroke="#112e42"></path><path d="M811 281L710 177L689 327Z" fill="#112e42" stroke="#112e42"></path><path d="M639 194L639 94L522 97Z" fill="#19435d" stroke="#19435d"></path><path d="M710 177L639 94L639 194Z" fill="#081a28" stroke="#081a28"></path><path d="M522 97L505 0L411 87Z" fill="#277297" stroke="#277297"></path><path d="M289 600L362 600L328 469Z" fill="#081a28" stroke="#081a28"></path><path d="M476 600L613 600L573 487Z" fill="#277297" stroke="#277297"></path><path d="M631 0L505 0L522 97Z" fill="#0c2435" stroke="#0c2435"></path><path d="M411 87L330 0L277 131Z" fill="#00101c" stroke="#00101c"></path><path d="M505 0L414 0L411 87Z" fill="#00101c" stroke="#00101c"></path><path d="M168 492L289 600L328 469Z" fill="#0c2435" stroke="#0c2435"></path><path d="M277 131L162 176L309 225Z" fill="#0c2435" stroke="#0c2435"></path><path d="M204 0L196 121L277 131Z" fill="#00101c" stroke="#00101c"></path><path d="M196 121L162 176L277 131Z" fill="#112e42" stroke="#112e42"></path><path d="M197 267L133 267L203 401Z" fill="#081a28" stroke="#081a28"></path><path d="M162 176L133 267L197 267Z" fill="#15384f" stroke="#15384f"></path><path d="M203 401L168 492L328 469Z" fill="#15384f" stroke="#15384f"></path><path d="M120 410L168 492L203 401Z" fill="#205a7a" stroke="#205a7a"></path><path d="M414 0L330 0L411 87Z" fill="#277297" stroke="#277297"></path><path d="M777 515L794 431L698 461Z" fill="#15384f" stroke="#15384f"></path><path d="M698 461L794 431L717 400Z" fill="#19435d" stroke="#19435d"></path><path d="M717 400L811 281L689 327Z" fill="#15384f" stroke="#15384f"></path><path d="M794 431L811 281L717 400Z" fill="#19435d" stroke="#19435d"></path><path d="M663 0L631 0L639 94Z" fill="#112e42" stroke="#112e42"></path><path d="M133 267L120 410L203 401Z" fill="#0c2435" stroke="#0c2435"></path><path d="M728 69L639 94L710 177Z" fill="#205a7a" stroke="#205a7a"></path><path d="M639 94L631 0L522 97Z" fill="#19435d" stroke="#19435d"></path><path d="M613 600L695 600L698 461Z" fill="#1d4e6b" stroke="#1d4e6b"></path><path d="M819 121L728 69L710 177Z" fill="#081a28" stroke="#081a28"></path><path d="M695 600L777 515L698 461Z" fill="#205a7a" stroke="#205a7a"></path><path d="M168 492L212 600L289 600Z" fill="#112e42" stroke="#112e42"></path><path d="M80 600L212 600L168 492Z" fill="#19435d" stroke="#19435d"></path><path d="M728 69L663 0L639 94Z" fill="#00101c" stroke="#00101c"></path><path d="M162 176L69 217L133 267Z" fill="#277297" stroke="#277297"></path><path d="M133 267L0 301L120 410Z" fill="#277297" stroke="#277297"></path><path d="M196 121L110 130L162 176Z" fill="#112e42" stroke="#112e42"></path><path d="M109 0L110 130L196 121Z" fill="#277297" stroke="#277297"></path><path d="M811 281L833 165L710 177Z" fill="#297ea6" stroke="#297ea6"></path><path d="M728 69L808 0L663 0Z" fill="#1d4e6b" stroke="#1d4e6b"></path><path d="M900 208L833 165L811 281Z" fill="#1d4e6b" stroke="#1d4e6b"></path><path d="M110 130L69 217L162 176Z" fill="#205a7a" stroke="#205a7a"></path><path d="M833 165L819 121L710 177Z" fill="#00101c" stroke="#00101c"></path><path d="M330 0L204 0L277 131Z" fill="#277297" stroke="#277297"></path><path d="M0 381L73 477L120 410Z" fill="#297ea6" stroke="#297ea6"></path><path d="M120 410L73 477L168 492Z" fill="#112e42" stroke="#112e42"></path><path d="M900 462L900 391L794 431Z" fill="#15384f" stroke="#15384f"></path><path d="M900 391L900 260L811 281Z" fill="#0c2435" stroke="#0c2435"></path><path d="M695 600L796 600L777 515Z" fill="#19435d" stroke="#19435d"></path><path d="M900 391L811 281L794 431Z" fill="#00101c" stroke="#00101c"></path><path d="M833 165L900 102L819 121Z" fill="#19435d" stroke="#19435d"></path><path d="M900 462L794 431L777 515Z" fill="#0c2435" stroke="#0c2435"></path><path d="M900 260L900 208L811 281Z" fill="#277297" stroke="#277297"></path><path d="M900 600L900 462L777 515Z" fill="#205a7a" stroke="#205a7a"></path><path d="M0 192L0 301L69 217Z" fill="#277297" stroke="#277297"></path><path d="M69 217L0 301L133 267Z" fill="#297ea6" stroke="#297ea6"></path><path d="M0 301L0 381L120 410Z" fill="#0c2435" stroke="#0c2435"></path><path d="M900 102L808 0L819 121Z" fill="#0c2435" stroke="#0c2435"></path><path d="M819 121L808 0L728 69Z" fill="#19435d" stroke="#19435d"></path><path d="M0 532L80 600L73 477Z" fill="#0c2435" stroke="#0c2435"></path><path d="M73 477L80 600L168 492Z" fill="#19435d" stroke="#19435d"></path><path d="M204 0L109 0L196 121Z" fill="#1d4e6b" stroke="#1d4e6b"></path><path d="M0 121L0 192L69 217Z" fill="#0c2435" stroke="#0c2435"></path><path d="M0 121L69 217L110 130Z" fill="#297ea6" stroke="#297ea6"></path><path d="M900 208L900 102L833 165Z" fill="#081a28" stroke="#081a28"></path><path d="M109 0L0 121L110 130Z" fill="#246688" stroke="#246688"></path><path d="M0 381L0 532L73 477Z" fill="#112e42" stroke="#112e42"></path><path d="M796 600L900 600L777 515Z" fill="#297ea6" stroke="#297ea6"></path><path d="M0 532L0 600L80 600Z" fill="#112e42" stroke="#112e42"></path><path d="M900 102L900 0L808 0Z" fill="#15384f" stroke="#15384f"></path><path d="M109 0L0 0L0 121Z" fill="#1d4e6b" stroke="#1d4e6b"></path></g></svg>